<svg width="117" height="540" viewBox="0 0 117 540" fill="none" xmlns="http://www.w3.org/2000/svg">
<g clip-path="url(#clip0_314_2057)">
<g opacity="0.8">
<path d="M98.5713 540H18.4286C11.5438 540 5.94629 534.443 5.94629 527.609V12.3915C5.94629 5.55681 11.5438 0 18.4286 0H98.5713C105.456 0 111.054 5.55681 111.054 12.3915V527.609C111.054 534.443 105.456 540 98.5713 540ZM18.4286 1.01408C12.1086 1.01408 6.9678 6.11744 6.9678 12.3915V527.609C6.9678 533.883 12.1086 538.986 18.4286 538.986H98.5713C104.891 538.986 110.032 533.883 110.032 527.609V12.3915C110.032 6.11744 104.891 1.01408 98.5713 1.01408H18.4286Z" fill="#231F20"/>
</g>
<path d="M58.2093 326.558C51.6069 326.492 45.5111 325.948 39.5315 324.431C32.1651 322.567 25.4131 319.443 19.4087 314.793C12.4657 309.417 7.48277 302.591 4.24385 294.487C2.54964 290.241 1.45339 285.846 0.797298 281.337C0.132903 276.736 -0.124551 272.103 0.0581581 267.461C0.340526 260.156 1.53644 253.017 4.28537 246.207C10.0656 231.886 20.3886 222.232 34.9721 217.021C39.0249 215.578 43.2106 214.688 47.4794 214.119C50.6186 213.698 53.7745 213.534 56.9387 213.459C59.9119 213.393 62.885 213.567 65.8499 213.83C69.4293 214.144 72.9672 214.713 76.4387 215.595C86.3963 218.126 95.1248 222.833 102.275 230.245C107.898 236.074 111.76 242.934 114.168 250.609C115.688 255.457 116.543 260.428 116.834 265.507C116.958 267.659 117.042 269.811 116.975 271.971C116.759 279.234 115.638 286.333 112.914 293.11C108.487 304.124 101.079 312.6 90.7813 318.594C85.4412 321.702 79.7025 323.755 73.6482 325C69.3878 325.873 65.0858 326.376 60.7257 326.459C59.7375 326.475 58.7409 326.533 58.201 326.558H58.2093Z" fill="#B6D561"/>
<path d="M110.124 89.7334H6.86829V89.923H110.124V89.7334Z" fill="white"/>
<path d="M110.539 89.3213H6.4613V90.3354H110.539V89.3213Z" fill="black"/>
<path d="M110.124 167.925H6.86829V168.114H110.124V167.925Z" fill="white"/>
<path d="M110.539 167.513H6.4613V168.535H110.539V167.513Z" fill="black"/>
<path d="M110.124 369.701H6.86829V369.891H110.124V369.701Z" fill="white"/>
<path d="M110.539 369.289H6.4613V370.303H110.539V369.289Z" fill="black"/>
<path d="M110.124 447.893H6.86829V448.082H110.124V447.893Z" fill="white"/>
<path d="M110.539 447.48H6.4613V448.495H110.539V447.48Z" fill="black"/>
<path d="M57.9685 385.86H59.1062C59.8952 386.165 60.5845 386.611 60.8586 387.452C60.9748 387.806 61.1576 387.847 61.4731 387.847C66.7634 387.847 72.0619 387.847 77.3522 387.847C77.5183 387.847 77.6844 387.847 77.8837 387.847C77.8837 387.542 77.8588 387.303 77.8837 387.072C77.9418 386.668 78.0415 386.273 78.1245 385.869C79.7108 385.869 81.297 385.869 82.8833 385.869V390.593C82.2355 390.716 81.5877 390.832 80.8901 390.964V391.467C80.8901 395.226 80.8901 398.986 80.8901 402.745C80.8901 404.237 80.8901 405.738 80.8901 407.23C80.8901 407.379 80.9648 407.626 81.0645 407.651C82.0196 407.931 82.5345 408.623 82.875 409.489V410.627C82.5677 411.41 82.1275 412.094 81.2804 412.367C80.9233 412.482 80.8818 412.663 80.8818 412.977C80.8818 418.228 80.8818 423.488 80.8818 428.74V429.276C81.2223 429.276 81.4964 429.243 81.7538 429.276C82.1275 429.326 82.5013 429.433 82.875 429.515V433.959C82.6341 434.05 82.4016 434.223 82.1608 434.231C80.9731 434.256 79.7855 434.248 78.5979 434.239C78.0249 434.239 77.8837 434.091 77.8671 433.505C77.8671 433.101 77.8671 432.698 77.8671 432.277C77.701 432.269 77.6096 432.261 77.5183 432.261C72.1284 432.261 66.7385 432.261 61.3486 432.261C61.0496 432.261 60.9499 432.368 60.8586 432.632C60.5015 433.621 59.5879 434.239 58.5747 434.248C57.4868 434.248 56.5732 433.687 56.2078 432.689C56.0832 432.343 55.9171 432.261 55.56 432.261C50.2781 432.269 45.0045 432.261 39.7225 432.261H39.1661C39.1661 432.722 39.1661 433.126 39.1661 433.53C39.1578 434.083 39 434.239 38.4602 434.239C37.2559 434.239 36.0517 434.239 34.8475 434.239C34.316 434.239 34.1665 434.091 34.1665 433.571C34.1665 432.392 34.1665 431.214 34.1665 430.026C34.1665 429.416 34.2994 429.284 34.9139 429.276C35.3209 429.276 35.7195 429.276 36.1348 429.276C36.1431 429.111 36.1514 429.037 36.1514 428.963C36.1514 423.596 36.1514 418.228 36.1597 412.861C36.1597 412.556 36.0268 412.474 35.7777 412.383C34.7894 412.02 34.1748 411.122 34.1665 410.099C34.1665 409.019 34.7479 408.112 35.7444 407.758C36.0766 407.634 36.1597 407.486 36.1597 407.156C36.1514 401.879 36.1597 396.611 36.1597 391.335C36.1597 391.186 36.1597 391.03 36.1597 390.84C35.6863 390.84 35.2711 390.84 34.8641 390.84C34.3326 390.832 34.1748 390.683 34.1748 390.172C34.1748 388.96 34.1582 387.748 34.1831 386.536C34.1831 386.314 34.3575 386.099 34.4572 385.877C35.9521 385.877 37.4387 385.877 38.9335 385.877C39.0581 386.52 39.1827 387.163 39.3156 387.856C39.4401 387.856 39.6228 387.856 39.8139 387.856C43.6341 387.856 47.4544 387.856 51.2747 387.856C52.7447 387.856 54.2229 387.856 55.6929 387.856C55.8424 387.856 56.0832 387.781 56.1165 387.682C56.4071 386.734 57.0964 386.215 57.9685 385.877V385.86ZM37.2227 390.824C37.2144 391.021 37.2061 391.129 37.2061 391.236C37.2061 396.554 37.2061 401.879 37.2061 407.197C37.2061 407.494 37.2975 407.626 37.5798 407.733C38.5681 408.112 39.1661 409.003 39.1661 410.033C39.1661 411.047 38.593 411.946 37.6297 412.317C37.2726 412.449 37.2061 412.63 37.2061 412.968C37.2144 418.212 37.2061 423.455 37.2061 428.699C37.2061 428.864 37.2061 429.037 37.2061 429.177C37.2892 429.218 37.3141 429.235 37.3473 429.243C37.6961 429.243 38.0449 429.251 38.3937 429.26C39.0332 429.26 39.1827 429.408 39.191 430.035C39.191 430.422 39.191 430.801 39.191 431.197C39.382 431.205 39.49 431.214 39.5979 431.214C44.9546 431.214 50.3196 431.214 55.6763 431.214C55.9753 431.214 56.1082 431.131 56.2161 430.843C56.5981 429.861 57.5034 429.251 58.5332 429.268C59.6211 429.284 60.4184 429.795 60.8337 430.793C60.9748 431.139 61.1493 431.214 61.4981 431.214C66.78 431.205 72.0619 431.214 77.3356 431.214H77.892C77.892 430.768 77.892 430.381 77.892 429.985C77.9003 429.408 78.0581 429.26 78.6312 429.251C79.0381 429.251 79.4367 429.251 79.8437 429.251C79.852 429.095 79.8686 429.012 79.8686 428.938C79.8686 423.571 79.8686 418.204 79.8769 412.828C79.8769 412.531 79.7523 412.432 79.5032 412.334C78.5149 411.946 77.9169 411.064 77.9169 410.025C77.9169 409.011 78.49 408.112 79.4533 407.741C79.8021 407.609 79.8852 407.436 79.8852 407.09C79.8769 401.846 79.8852 396.603 79.8852 391.359C79.8852 391.195 79.8852 391.021 79.8852 390.799C79.5945 390.799 79.362 390.799 79.1294 390.799C77.9086 390.799 77.9003 390.799 77.9003 389.603C77.9003 389.356 77.9003 389.117 77.9003 388.861C77.7093 388.853 77.6013 388.845 77.4934 388.845C72.1367 388.845 66.7717 388.845 61.415 388.845C61.116 388.845 60.9832 388.927 60.8669 389.216C60.4849 390.197 59.5879 390.791 58.5498 390.791C57.5283 390.791 56.6231 390.213 56.2493 389.265C56.1165 388.919 55.9338 388.845 55.5933 388.845C50.3113 388.853 45.0294 388.845 39.7557 388.845H39.1993C39.1993 389.323 39.1993 389.744 39.1993 390.164C39.1993 390.584 38.9834 390.807 38.5515 390.807C38.128 390.807 37.7044 390.807 37.2393 390.807L37.2227 390.824ZM35.2461 386.907V389.793C36.1431 389.793 37.0068 389.793 37.8788 389.785C37.9702 389.785 38.1363 389.636 38.1446 389.554C38.1612 388.68 38.1529 387.806 38.1529 386.907H35.2461ZM78.9301 386.899C78.9301 387.814 78.9301 388.68 78.9384 389.537C78.9384 389.62 79.063 389.777 79.1378 389.785C80.0347 389.801 80.9316 389.793 81.8286 389.793V386.899H78.9301ZM38.1529 433.184C38.1529 432.277 38.1529 431.436 38.1446 430.587C38.1446 430.488 38.0117 430.307 37.9369 430.307C37.04 430.29 36.1431 430.29 35.2461 430.29V433.176H38.1612L38.1529 433.184ZM81.8535 430.29C80.9399 430.29 80.0762 430.29 79.2042 430.298C79.1128 430.298 78.9384 430.447 78.9384 430.521C78.9218 431.395 78.9301 432.269 78.9301 433.167H81.8535V430.29ZM36.6746 408.591C35.8441 408.591 35.2129 409.217 35.2129 410.05C35.2129 410.85 35.8441 411.476 36.6497 411.484C37.4802 411.484 38.1363 410.85 38.1446 410.05C38.1446 409.242 37.4968 408.591 36.6663 408.591H36.6746ZM80.4333 408.591C79.6028 408.591 78.9384 409.217 78.9301 410.025C78.9218 410.833 79.5779 411.484 80.4001 411.484C81.2306 411.484 81.8618 410.858 81.8618 410.025C81.8618 409.225 81.2306 408.591 80.425 408.591H80.4333ZM60.0032 431.758C60.0032 430.933 59.3554 430.282 58.5415 430.282C57.7276 430.282 57.0798 430.941 57.0881 431.758C57.0881 432.582 57.7276 433.2 58.5664 433.192C59.3637 433.192 59.9949 432.549 60.0032 431.749V431.758ZM60.0032 388.325C60.0032 387.493 59.372 386.874 58.5332 386.874C57.7276 386.874 57.0964 387.501 57.0881 388.301C57.0881 389.125 57.7193 389.777 58.5332 389.785C59.3388 389.793 60.0032 389.142 60.0032 388.317V388.325Z" fill="#B6D561"/>
<path d="M51.8062 425.17C52.2131 425.17 52.5869 425.17 52.9689 425.17C53.2928 425.17 53.4838 425.31 53.5087 425.632C53.5253 425.978 53.3343 426.151 53.0021 426.184C52.8609 426.2 52.7197 426.184 52.5703 426.184C48.7168 426.184 44.8633 426.184 41.0098 426.176C40.6527 426.176 40.4617 426.275 40.3454 426.613C40.2374 426.942 40.0713 427.247 39.9301 427.561C39.789 427.866 39.5398 427.989 39.2325 427.866C38.9169 427.734 38.8671 427.454 38.9917 427.148C39.1163 426.843 39.2491 426.547 39.3986 426.192C39.1079 426.192 38.8754 426.2 38.6429 426.192C38.3439 426.176 38.1778 426.011 38.1612 425.714C38.1529 425.392 38.319 425.211 38.6346 425.178C38.7425 425.162 38.8588 425.153 38.9668 425.178C39.6478 425.302 39.98 425.021 40.254 424.387C41.533 421.493 42.8701 418.632 44.1906 415.763C44.257 415.606 44.3234 415.458 44.4148 415.243C43.9663 415.243 43.5926 415.243 43.2106 415.243C42.8701 415.243 42.6542 415.079 42.6459 414.74C42.6459 414.402 42.8535 414.229 43.194 414.221C43.6507 414.213 44.1158 414.238 44.5726 414.205C44.7221 414.196 44.938 414.081 44.9962 413.957C47.8863 407.667 50.7598 401.376 53.6416 395.086C53.6499 395.061 53.6416 395.028 53.6499 394.937C53.0685 394.937 52.4955 394.937 51.9142 394.937C51.5737 394.937 51.3079 394.855 51.2913 394.459C51.2747 394.047 51.5321 393.915 51.9059 393.907C52.537 393.907 53.1765 393.89 53.8077 393.907C54.0818 393.915 54.2479 393.841 54.3475 393.569C54.4555 393.272 54.5967 392.991 54.7378 392.711C54.879 392.447 55.095 392.299 55.4022 392.431C55.7178 392.571 55.7843 392.835 55.668 393.14C55.5766 393.371 55.4687 393.593 55.3524 393.865H63.2836C63.2172 393.692 63.159 393.519 63.0843 393.362C62.9431 393.041 62.9763 392.761 63.3168 392.612C63.6324 392.472 63.9231 392.612 63.9978 392.917C64.2138 393.865 64.845 394.022 65.6838 393.907C65.9661 393.865 66.2568 393.89 66.5392 393.907C66.8548 393.923 67.0541 394.104 67.0458 394.418C67.0458 394.748 66.8548 394.929 66.4976 394.929C66.0076 394.929 65.5177 394.929 64.9446 394.929C65.0277 395.127 65.0858 395.275 65.1522 395.424C69.8113 405.606 74.4704 415.788 79.1378 425.97C79.171 426.044 79.2042 426.11 79.2374 426.184C79.3952 426.505 79.4035 426.811 79.0381 426.984C78.6561 427.165 78.4152 426.942 78.3073 426.613C78.191 426.233 77.9501 426.184 77.593 426.184C74.4039 426.192 71.2148 426.184 68.034 426.2C67.5274 426.2 67.2617 426.019 67.0624 425.566C66.3731 423.999 65.6339 422.449 64.9363 420.883C64.8117 420.611 64.6789 420.52 64.3716 420.52C60.9915 420.528 57.6197 420.52 54.2395 420.536C54.0818 420.536 53.8409 420.66 53.7745 420.792C53.1184 422.169 52.4955 423.562 51.8643 424.947C51.8394 425.005 51.8311 425.063 51.8062 425.162V425.17ZM73.4821 425.17C73.4157 425.013 73.3824 424.914 73.3326 424.824C68.823 414.971 64.3134 405.119 59.8039 395.267C59.6876 395.02 59.563 394.921 59.2806 394.929C57.9685 394.945 56.648 394.954 55.3358 394.929C54.9455 394.921 54.7877 395.069 54.6465 395.391C51.8643 401.483 49.0739 407.576 46.2917 413.669C46.217 413.834 46.1505 414.007 46.0675 414.221C47.8447 414.221 49.5722 414.221 51.2996 414.205C51.4325 414.205 51.6152 414.015 51.6733 413.875C53.3094 410.313 54.9372 406.752 56.5483 403.19C56.6314 403.009 56.6148 402.736 56.5483 402.539C56.4154 402.143 56.2078 401.764 56.0334 401.376C55.8839 401.046 55.9005 400.75 56.2743 400.593C56.6397 400.445 56.8307 400.675 56.9719 400.972C57.0217 401.071 57.0632 401.17 57.1131 401.269C59.0315 405.457 60.9582 409.645 62.8684 413.842C63.0013 414.139 63.159 414.279 63.4996 414.246C63.865 414.213 64.2304 414.221 64.5958 414.246C64.9031 414.262 65.1024 414.452 65.0941 414.765C65.0858 415.07 64.8948 415.252 64.5709 415.26C64.247 415.26 63.9148 415.26 63.5162 415.26C63.674 415.623 63.8235 415.919 63.9314 416.225C64.0311 416.505 63.9646 416.76 63.6657 416.892C63.3667 417.024 63.1341 416.901 63.0013 416.628C62.8435 416.307 62.6691 415.977 62.5611 415.639C62.4531 415.301 62.2538 415.235 61.9216 415.235C56.6231 415.243 51.3328 415.243 46.0343 415.235C45.6772 415.235 45.5111 415.351 45.3699 415.672C43.9996 418.698 42.6126 421.707 41.2257 424.725C41.1593 424.865 41.1094 425.005 41.043 425.178C42.8036 425.178 44.5145 425.178 46.2253 425.162C46.3665 425.162 46.5741 424.98 46.6405 424.84C47.172 423.735 47.6703 422.614 48.1769 421.501C48.3098 421.204 48.4427 420.907 48.6005 420.545C48.152 420.545 47.77 420.545 47.3963 420.545C47.0475 420.545 46.8482 420.347 46.8565 420.017C46.8565 419.712 47.0558 419.531 47.3797 419.522C47.5042 419.522 47.6371 419.522 47.7617 419.522C54.007 419.522 60.2606 419.522 66.5059 419.522C66.5226 419.522 66.5392 419.522 66.5558 419.522C67.1869 419.522 67.3946 419.646 67.4029 420.025C67.4029 420.404 67.1869 420.545 66.5807 420.553C66.3814 420.553 66.1821 420.553 65.908 420.553C66.4229 421.682 66.9046 422.738 67.3863 423.793C67.5939 424.246 67.7102 424.873 68.0673 425.104C68.4244 425.335 69.0473 425.186 69.5455 425.195C70.0023 425.195 70.4674 425.195 70.9242 425.195C71.7547 425.195 72.5935 425.195 73.4821 425.195V425.17ZM60.8004 394.929C60.9084 395.168 60.9832 395.358 61.0662 395.539C64.2055 402.39 67.3364 409.241 70.4757 416.093C71.7962 418.978 73.1167 421.872 74.4455 424.758C74.5202 424.914 74.6614 425.145 74.7777 425.153C75.6995 425.186 76.6297 425.17 77.618 425.17C77.5266 424.955 77.4768 424.815 77.4103 424.675C74.7527 418.871 72.1035 413.059 69.4459 407.254C67.6271 403.281 65.8083 399.299 63.9812 395.333C63.9065 395.176 63.7321 394.962 63.5992 394.954C62.6857 394.921 61.7721 394.937 60.8004 394.937V394.929ZM57.2376 404.13C55.6846 407.527 54.1731 410.841 52.6284 414.213C53.6084 414.213 54.4887 414.229 55.3773 414.196C55.5185 414.196 55.7178 414.048 55.776 413.916C56.7393 411.838 57.6944 409.753 58.6329 407.658C58.691 407.527 58.6993 407.32 58.6329 407.18C58.1927 406.191 57.7359 405.21 57.2293 404.122L57.2376 404.13ZM56.8058 414.163H61.8469C60.9998 412.325 60.1776 410.544 59.3056 408.656C58.4418 410.552 57.6363 412.341 56.8058 414.163ZM52.753 420.528C51.8228 420.528 50.9591 420.536 50.0954 420.528C49.813 420.528 49.6801 420.619 49.5722 420.866C48.9825 422.185 48.3763 423.496 47.7783 424.807C47.7285 424.906 47.7036 425.021 47.662 425.17C48.6088 425.17 49.4891 425.17 50.3778 425.17C50.494 425.17 50.6684 425.087 50.7183 424.997C51.3993 423.537 52.0637 422.07 52.7613 420.536L52.753 420.528Z" fill="#B6D561"/>
<path d="M59.2308 425.17C60.2772 425.17 61.3153 425.17 62.3618 425.17C62.7189 425.17 63.0095 425.245 63.0095 425.665C63.0095 426.077 62.7438 426.193 62.3784 426.193C60.2772 426.193 58.1678 426.193 56.0666 426.193C55.7095 426.193 55.4105 426.077 55.4105 425.682C55.4105 425.253 55.7178 425.162 56.0915 425.162C57.1379 425.17 58.1761 425.162 59.2225 425.162L59.2308 425.17Z" fill="#B6D561"/>
<path d="M79.8853 41.6932C79.6943 41.6107 79.4202 41.6437 79.2043 41.7014C79.005 41.7509 78.8139 41.8745 78.6395 41.9817C77.9585 42.3775 77.236 42.7155 76.6297 43.2019C76.1065 43.6224 75.7328 44.2078 75.2926 44.7189C75.2096 44.8261 75.1182 44.9168 75.0352 45.0157C75.0103 44.9992 74.9688 44.991 74.9438 44.9662V34.7843C74.9438 34.6359 74.9521 34.4875 74.9272 34.3391C74.8691 34.0505 74.6864 33.8856 74.3874 33.8938C74.0967 33.9021 73.914 34.067 73.8642 34.3555C73.8476 34.4875 73.8559 34.6194 73.8559 34.7513C73.8559 38.4448 73.8476 42.1384 73.8642 45.8402C73.8642 46.2936 73.7894 46.6399 73.4656 47.0026C72.6849 47.8683 71.9873 48.8082 71.2647 49.7316C70.401 50.8446 69.5373 51.9576 68.6819 53.0706C68.4078 53.4169 68.1421 53.7549 67.868 54.1012C66.9711 55.2307 66.0492 56.3519 65.1689 57.4979C64.953 57.7782 64.7454 57.9019 64.3799 57.9019C59.6461 57.8937 54.9206 57.8937 50.1951 57.8937C49.9875 57.9019 49.7633 57.9349 49.5722 58.0173C49.4477 58.0833 49.2982 58.2729 49.3065 58.3966C49.3231 58.545 49.4809 58.7346 49.6055 58.8006C49.7965 58.883 50.0207 58.8913 50.2366 58.8913H63.9979C63.8567 59.1056 63.7322 59.2293 63.6657 59.3859C63.5245 59.7652 63.2671 60.0702 63.4498 60.5649C63.7073 61.2739 64.164 61.6449 64.8616 61.7604C65.6008 61.884 66.207 61.6449 66.6804 61.0678C67.0791 60.5814 67.486 60.0867 67.8846 59.592C68.8812 58.3306 69.8778 57.0692 70.8661 55.816C71.489 55.0163 72.0952 54.2166 72.7264 53.4169C73.0586 52.9964 73.4074 52.5924 73.8227 52.0895C73.8393 52.2627 73.8476 52.3286 73.8476 52.3863V56.8796C73.8393 57.4814 73.4573 57.8772 72.8427 57.8854C72.3029 57.9019 71.763 57.8854 71.2232 57.9019C71.0405 57.9019 70.8412 57.9266 70.6834 58.0173C70.5671 58.0833 70.4592 58.2647 70.4592 58.3966C70.4592 58.5203 70.5754 58.6851 70.6834 58.7593C70.808 58.8418 70.9824 58.883 71.1402 58.883C71.7049 58.8995 72.278 58.9077 72.8427 58.883C74.1383 58.8171 74.9771 58.0256 74.9438 56.6652C74.9023 54.7525 74.9355 52.8398 74.9355 50.927C74.9355 50.7869 74.9521 50.6302 75.0269 50.5231C75.9238 49.3688 76.8374 48.2311 77.7343 47.0851C78.0167 46.7223 78.2824 46.3348 78.598 45.9886C79.2292 45.296 79.7192 44.5458 79.8188 43.5894C79.8687 43.1689 79.9434 42.732 80.068 42.328C80.151 42.0477 80.1178 41.7921 79.877 41.6849L79.8853 41.6932ZM77.2526 46.038C76.9619 46.3926 76.6547 46.7471 76.3723 47.1016C75.7411 47.9095 75.1182 48.7258 74.4871 49.5337C73.5154 50.7869 72.5188 52.0236 71.5305 53.2767C70.8163 54.1754 70.1021 55.0823 69.3795 55.9809C68.4079 57.2259 67.4196 58.4625 66.4396 59.691C66.2236 59.963 66.0077 60.2269 65.7835 60.4989C65.5343 60.8122 64.9945 60.8947 64.7038 60.6721C64.4215 60.4495 64.4547 60.0208 64.7454 59.6662C65.4347 58.8335 66.0991 57.9761 66.7801 57.1269C67.6272 56.0799 68.466 55.0411 69.2965 53.994C69.5705 53.656 69.8446 53.3097 70.1104 52.9634C70.9741 51.8504 71.8378 50.7457 72.7015 49.6327C73.4323 48.701 74.1632 47.7776 74.9023 46.8625C75.5999 45.9803 76.2975 45.0817 77.0118 44.2242C77.4768 43.6471 78.1163 43.3338 78.8139 43.037C78.6894 44.2984 77.9585 45.1641 77.2443 46.038H77.2526Z" fill="#B6D561"/>
<path d="M67.9593 39.846C67.6355 38.634 67.1039 37.4963 66.1655 36.6224C65.5426 36.0452 64.9031 35.4434 64.1889 35.0147C62.5113 34.0088 60.6593 33.6131 58.7076 33.7368C56.5234 33.8769 54.5884 34.6602 52.9606 36.1194C51.9723 36.9934 51.2664 38.0816 50.8678 39.3183C50.2034 41.3712 50.4857 43.3417 51.5654 45.2049C51.773 45.5677 52.0305 45.9222 52.3211 46.2272C53.0437 47.0022 53.8326 47.6865 54.8043 48.1647C55.0618 48.2884 55.1448 48.5027 55.1448 48.783C55.1365 49.7064 55.1448 50.6298 55.1448 51.5532C55.1448 52.0891 55.1863 52.6085 55.4355 53.1197C55.8923 54.0431 56.5982 54.5872 57.5283 54.917C58.3588 55.2138 59.2308 55.1808 60.0863 55.1313C61.2406 55.0571 62.2289 54.5954 62.9099 53.6556C63.3584 53.0537 63.6076 52.3447 63.5577 51.5697C63.5328 51.2234 63.5494 50.8772 63.5494 50.5226C63.5494 49.9455 63.3916 49.7806 62.8103 49.7806H61.0579C61.0579 49.3602 61.0828 48.9974 61.0579 48.6429C60.9998 48.0575 61.2988 47.6535 61.714 47.3155C62.2455 46.8703 62.802 46.4581 63.3169 45.9881C64.2138 45.1472 64.7204 44.1249 64.6789 42.8717C64.654 41.8494 64.3965 40.8848 63.5245 40.2664C62.3701 39.4585 61.1244 39.3266 59.8371 40.0191C59.5381 40.1758 59.4136 40.4148 59.5714 40.6457C59.6959 40.8023 60.0198 40.8848 60.2524 40.893C60.4351 40.9013 60.6178 40.7446 60.8088 40.6787C61.6393 40.3736 62.7521 40.7281 63.1591 41.4289C63.674 42.3193 63.7653 43.2262 63.3003 44.1826C62.8269 45.1637 62.0628 45.8315 61.1908 46.4169C60.4766 46.895 59.97 47.4887 60.0032 48.412C60.0115 48.8408 60.0032 49.286 60.0032 49.7394H58.7824C58.7824 49.2695 58.7907 48.8078 58.7741 48.3543C58.7575 47.7525 58.5831 47.2166 58.0848 46.8126C57.3373 46.1943 56.6065 45.5512 55.884 44.8999C55.6016 44.6443 55.2943 44.5618 55.0618 44.7762C54.7877 45.0235 54.8209 45.3203 55.0701 45.5512C55.6265 46.0953 56.2328 46.5982 56.8058 47.1176C57.0965 47.3815 57.5283 47.6371 57.6114 47.9668C57.7609 48.5192 57.7027 49.1458 57.736 49.7229H56.2909C56.2909 49.3602 56.266 49.0304 56.2909 48.6924C56.349 48.0081 55.9421 47.5793 55.4023 47.299C54.0403 46.6065 53.0021 45.5677 52.3045 44.2403C51.8228 43.3252 51.6567 42.2946 51.6152 41.2723C51.6069 41.0249 51.7066 40.7858 51.7564 40.5385C51.8976 39.7965 52.0886 39.0792 52.4955 38.4114C53.0852 37.4468 53.8409 36.6718 54.7711 36.0452C56.0584 35.1713 57.4951 34.7096 59.0398 34.6849C61.5811 34.6354 63.7737 35.4351 65.4845 37.3891C66.3731 38.4114 66.888 39.5739 66.9794 40.9178C67.1205 42.781 66.589 44.4052 65.2935 45.782C64.737 46.3839 64.0892 46.8621 63.3667 47.2661C62.9099 47.5216 62.4781 47.8102 62.42 48.412C62.3784 48.7583 62.4947 48.9892 62.8684 49.0386C63.1923 49.0963 63.4581 48.8985 63.566 48.5852C63.6325 48.4038 63.7737 48.2307 63.9231 48.107C64.4214 47.7277 64.9613 47.4144 65.4596 47.0352C66.6638 46.1118 67.4112 44.8669 67.8763 43.4653C68.2666 42.2781 68.2915 41.0414 67.9676 39.8295L67.9593 39.846ZM56.2826 50.77H62.42C62.3784 51.3471 62.4116 51.9242 62.2954 52.4848C62.1044 53.3175 61.4649 53.8452 60.6676 54.0183C59.6378 54.2409 58.5665 54.3399 57.5533 53.8369C56.8141 53.4742 56.3573 52.9053 56.2909 52.0809C56.266 51.6604 56.2826 51.2234 56.2826 50.77Z" fill="#B6D561"/>
<path d="M80.6659 27.4051C80.5828 26.3993 80.4001 25.3934 80.2174 24.3959C80.1012 23.794 79.8686 23.6539 79.2541 23.7033C79.0464 23.7198 78.8305 23.7528 78.6229 23.7693C77.4934 23.8847 76.3722 23.9836 75.2428 24.0991C74.8857 24.1238 74.7113 24.3134 74.7279 24.6762C74.7279 24.7504 74.7112 24.8246 74.7029 24.9318C73.9472 24.9812 73.2081 25.0142 72.4689 25.0884C71.9955 25.1379 71.5969 25.0142 71.2066 24.7669C69.529 23.6951 67.6853 23.0438 65.7253 22.6728C65.0775 22.5491 64.4048 22.6728 63.9647 23.1509C63.5411 23.6126 63.1092 23.6621 62.5777 23.5055C62.4033 23.456 62.2372 23.4312 62.0545 23.3983C61.2572 23.2828 60.5513 23.4148 59.9617 24.0413C59.4302 24.5855 58.882 25.1131 58.3256 25.6243C57.7193 26.1767 57.7276 26.9599 58.3671 27.4711C58.4834 27.5782 58.608 27.6689 58.7242 27.7596C58.0515 28.8479 58.5249 29.796 59.5963 30.1011C61.1244 30.5215 62.6691 30.8925 64.1806 31.3295C64.9446 31.5686 65.7585 31.7747 66.2485 32.4837C66.6139 33.0279 66.9877 33.5803 67.2451 34.1739C67.5773 34.9324 67.8265 35.7403 68.0756 36.5318C68.1919 36.9111 68.4161 37.0182 68.7649 36.977C69.2217 36.9111 69.6702 36.8451 70.1186 36.7544C70.9989 36.5648 71.8211 35.8722 71.846 34.9076C71.8544 34.3223 71.954 33.7534 72.0038 33.1598C73.1997 33.0114 74.3708 32.8465 75.5584 32.6981C75.575 32.7888 75.6082 32.8465 75.6165 32.9125C75.6995 33.5885 75.8573 33.7204 76.5466 33.6462C77.8339 33.5143 79.1129 33.3824 80.3918 33.2257C80.8569 33.168 81.0562 32.9042 81.023 32.5085C80.8984 30.8101 80.8237 29.1035 80.6742 27.4051H80.6659ZM72.3277 32.1292C72.0371 32.1705 71.7381 32.2117 71.4474 32.2447C71.0654 32.2859 70.9159 32.492 70.9076 32.863C70.891 33.4071 70.8495 33.9513 70.7996 34.4954C70.6751 35.7568 69.9857 35.8393 69.0224 35.8805C68.9725 35.7074 68.9476 35.526 68.8729 35.3528C68.358 34.2563 67.9095 33.1186 67.2949 32.0715C66.78 31.1976 65.8333 30.8019 64.8865 30.5215C63.267 30.0516 61.6393 29.6229 60.0115 29.1694C59.5547 29.0375 59.4219 28.8809 59.5215 28.5511C59.6129 28.2048 59.97 27.974 60.3354 28.0729C61.5645 28.3862 62.802 28.6995 64.0394 29.021C64.0892 29.0293 64.1308 29.0458 64.1889 29.0623C64.5709 29.1365 64.928 28.9881 64.9862 28.7077C65.0526 28.3285 64.7619 28.2213 64.5045 28.1306C63.9231 27.9328 63.3501 27.7431 62.7604 27.6112C61.6891 27.3556 60.6095 27.1413 59.5381 26.9022C59.2973 26.8527 59.0232 26.8362 59.0398 26.4982C59.0564 26.2591 59.5215 25.8469 59.7374 25.8964C61.0662 26.1767 62.395 26.4405 63.7155 26.762C64.2304 26.894 64.7121 27.1413 65.2021 27.3556C65.609 27.5288 65.9412 27.4711 66.0741 27.1578C66.1987 26.8527 66.0243 26.5971 65.6256 26.424C64.0975 25.748 62.4864 25.344 60.842 25.0637C60.759 25.0472 60.6676 25.0142 60.5679 24.9895C60.8918 24.503 61.2656 24.2804 61.8635 24.3876C63.3999 24.635 64.8948 24.9647 66.3233 25.5748C66.4811 25.6408 66.6388 25.7315 66.7883 25.8139C67.1704 26.0035 67.486 25.9458 67.6354 25.6573C67.7849 25.377 67.6853 25.0966 67.2866 24.9318C66.506 24.6102 65.717 24.3217 64.928 24.0331C64.845 23.9919 64.7536 23.9671 64.6706 23.9424C64.6623 23.9012 64.6623 23.86 64.6623 23.8105C64.9446 23.761 65.2519 23.6374 65.526 23.6868C67.2949 23.9754 68.9725 24.5772 70.4923 25.5501C71.2066 26.0035 71.9457 26.2014 72.7928 26.0777C73.4572 25.9871 74.1299 25.9706 74.8607 25.9293C75.0767 27.8751 75.2926 29.796 75.5168 31.7417C74.4123 31.8819 73.3742 32.022 72.3443 32.154L72.3277 32.1292ZM76.7127 32.6486C76.4387 30.1011 76.1646 27.5782 75.8906 25.0224C76.638 24.9482 77.319 24.8823 77.9917 24.8163C78.0665 24.8081 78.1329 24.8081 78.1993 24.8081C78.4983 24.7998 78.8969 24.6679 79.0797 24.8163C79.2707 24.9565 79.2291 25.377 79.2956 25.6738C79.7773 27.8338 79.769 30.0351 79.8437 32.3024C78.789 32.426 77.7924 32.525 76.7044 32.6486H76.7127Z" fill="#B6D561"/>
<path d="M51.881 51.5616C50.8512 51.1577 49.8131 50.7454 48.7833 50.3332C47.5957 49.8633 46.7486 49.0718 46.4413 47.8104C46.1008 46.3511 45.835 44.8753 45.5028 43.4078C45.4281 43.111 45.2869 42.7812 45.071 42.5586C44.5062 41.9815 43.8335 42.0145 43.1442 42.3608C42.9864 42.4432 42.8785 42.4844 42.7373 42.2948C42.2805 41.6517 41.6327 41.5198 40.9102 41.7094C40.5946 41.7919 40.3122 41.9898 40.0382 42.1711C39.4817 42.5174 38.9087 42.8472 38.4021 43.2429C37.7128 43.7706 37.5384 44.5126 37.7294 45.3205C37.8623 45.8812 37.6713 46.2357 37.1979 46.5077C36.6414 46.8293 36.4837 47.3652 36.5169 47.9505C36.5833 49.4428 37.0816 50.8279 37.7128 52.18C37.7543 52.2459 37.8208 52.3037 37.854 52.3696C38.0616 52.8478 38.4519 53.326 38.4519 53.8206C38.4519 54.5791 38.1945 55.3541 38.045 56.1456C37.8706 56.1374 37.7294 56.1044 37.6131 56.1209C37.2975 56.1291 37.065 56.261 36.9903 56.5826C36.7079 57.7368 36.4255 58.8993 36.1432 60.0617C36.0352 60.5317 36.1016 60.6801 36.575 60.7873C38.0367 61.1335 39.49 61.5128 40.9683 61.7766C42.6044 62.0652 44.2654 62.2548 45.9181 62.4609C46.5326 62.5434 46.6738 62.4114 46.815 61.8343C46.9562 61.2572 47.0891 60.6883 47.2386 60.1195C47.3797 59.5753 47.5624 59.0312 47.6953 58.487C47.7784 58.1655 47.6289 57.9429 47.2801 57.8852C47.0974 57.844 46.923 57.8028 46.6821 57.745C46.9811 56.7557 47.2469 55.8241 47.5541 54.9089C47.5791 54.8182 47.7784 54.7028 47.8946 54.7028C48.584 54.6863 49.265 54.7193 49.9626 54.7028C50.5937 54.6863 51.1003 54.4143 51.5239 53.9196C51.989 53.3919 52.0554 52.7406 52.2381 52.1223C52.3129 51.8584 52.1219 51.6771 51.881 51.5781V51.5616ZM45.7852 61.4633C44.4398 61.2819 43.1691 61.1418 41.9151 60.9357C40.5531 60.6966 39.1994 60.408 37.8457 60.136C37.3474 60.0288 37.3225 60.0123 37.4387 59.5094C37.6214 58.7344 37.8207 57.9676 38.0035 57.1679C40.8604 57.6873 43.6508 58.1985 46.4994 58.7179C46.2586 59.6495 46.0343 60.5399 45.7852 61.4633ZM49.4477 53.7217C48.8497 53.7135 48.2601 53.6722 47.6704 53.6475C46.8399 53.6063 46.7236 53.6887 46.4828 54.4884C46.3582 54.9172 46.2586 55.3624 46.1257 55.7993C45.9513 56.3764 45.7769 56.9371 45.5776 57.5472C43.4183 57.1514 41.2922 56.7639 39.108 56.36C39.1578 56.0961 39.1911 55.8406 39.2492 55.585C39.3738 55.0243 39.5316 54.4555 39.6146 53.8866C39.6811 53.4084 39.4651 52.9962 39.1994 52.5592C38.6762 51.71 38.2028 50.8279 37.9952 49.8385C37.8623 49.1872 37.6962 48.5524 37.5965 47.9011C37.5384 47.5053 37.663 47.3817 38.045 47.2333C38.0948 47.4724 38.1197 47.7032 38.2028 47.9258C38.4187 48.5277 38.6595 49.1378 38.9004 49.7314C39.025 50.0117 39.3821 50.1436 39.6478 49.9952C39.9219 49.8468 39.9883 49.6159 39.8721 49.3191C39.515 48.3875 39.1163 47.4724 39.0001 46.4665C38.9336 45.8812 38.8672 45.3041 38.809 44.7187C38.7592 44.1333 39.1578 43.9025 39.6395 43.6964C39.706 44.257 39.7309 44.8341 39.8555 45.3783C40.0714 46.3181 40.3455 47.2498 40.6195 48.1731C40.6776 48.3545 40.8022 48.5689 40.9517 48.6513C41.1427 48.742 41.4168 48.7915 41.6078 48.7255C41.8736 48.6513 41.9068 48.3875 41.8237 48.1237C41.5746 47.4064 41.2756 46.7056 41.1344 45.9719C40.9517 45.0567 40.8936 44.1168 40.8022 43.2017C40.7773 42.8719 41.0015 42.6576 41.3337 42.6246C41.6493 42.6081 41.8569 42.74 41.8902 43.0698C41.9649 43.6634 42.0064 44.2652 42.1144 44.8588C42.2971 45.774 42.513 46.6726 42.7207 47.5795C42.7871 47.8599 43.1359 48.0412 43.41 47.9753C43.8003 47.8681 43.9 47.695 43.8169 47.2992C43.5927 46.145 43.3684 44.9743 43.1359 43.8283C43.0695 43.5232 43.2024 43.4243 43.4266 43.3171C44.1159 42.9791 44.3484 43.1028 44.4647 43.853C44.6142 44.8094 44.7554 45.7822 44.9796 46.7304C45.154 47.4888 45.3782 48.2473 45.6772 48.9564C45.9928 49.6901 46.5243 50.3002 47.2386 50.6712C48.4594 51.2896 49.7134 51.8667 50.9675 52.4685C50.8097 53.4002 50.4193 53.7382 49.4144 53.73L49.4477 53.7217Z" fill="#B6D561"/>
<path d="M55.7345 26.102C54.2894 26.0937 52.8277 26.0855 51.3744 26.1102C51.1252 26.1102 50.8844 26.2834 50.6601 26.3988C50.5273 26.4812 50.4359 26.6214 50.3113 26.7368C49.2068 27.6932 48.0939 28.6496 46.9977 29.6142C46.1672 30.3562 45.3533 31.1312 44.4813 31.8319C44.1823 32.0875 44.0826 32.3266 44.0909 32.6894V40.1424C44.0909 40.2661 44.0826 40.3898 44.1075 40.5052C44.174 40.8432 44.5726 41.0328 44.8882 40.8844C45.1789 40.7525 45.2702 40.5299 45.2702 40.2084C45.2619 37.9246 45.2619 35.6409 45.2619 33.3407V32.846H45.7602C47.1139 32.846 48.4759 32.8295 49.8463 32.846C50.9093 32.8625 51.8976 31.9144 51.8477 30.8096C51.7813 29.5894 51.8311 28.3528 51.8311 27.0666H55.7677C56.1995 27.0584 56.4321 26.8935 56.4321 26.5967C56.4404 26.2751 56.1912 26.102 55.7428 26.102H55.7345ZM50.6767 30.8921C50.6684 31.5846 50.3861 31.8814 49.6885 31.8814C48.5175 31.8897 47.3299 31.8814 46.1422 31.8814C46.1339 31.8567 46.1256 31.8237 46.1007 31.799C47.5873 30.4881 49.0822 29.1854 50.6103 27.8333C50.6352 27.9653 50.6684 28.0477 50.6684 28.1301C50.6684 29.0535 50.6767 29.9769 50.6684 30.8921H50.6767Z" fill="#B6D561"/>
<path d="M56.349 40.4814C54.8458 40.6875 54.0735 41.8005 54.115 43.2268C54.1233 43.5483 54.2728 43.7544 54.6299 43.7627C54.987 43.7709 55.1614 43.606 55.1863 43.268C55.1946 43.1361 55.1863 43.0042 55.2112 42.8723C55.4023 41.8417 55.9919 41.2728 57.1878 41.4872C56.9885 41.9654 56.7394 42.4188 56.6231 42.897C56.4985 43.4412 56.6729 43.9606 56.9636 44.447C57.246 44.9252 57.7526 45.1972 58.4003 45.1148C58.9402 45.0406 59.3471 44.7933 59.5215 44.2326C60.1361 42.2045 58.7325 40.1516 56.349 40.4814ZM58.5 43.9358C58.417 44.1996 58.1429 44.2491 57.9685 44.043C57.5782 43.6143 57.7027 42.5507 58.2342 42.1138C58.6163 42.7074 58.691 43.3092 58.5 43.9358Z" fill="#B6D561"/>
<path d="M78.4402 31.3876C78.1662 31.3876 77.8423 31.132 77.8672 30.9011C77.9004 30.5961 78.1247 30.4559 78.407 30.4312C78.7392 30.3982 78.9884 30.6043 78.9967 30.8847C79.005 31.165 78.7641 31.3793 78.4402 31.3793V31.3876Z" fill="#B6D561"/>
<path d="M44.8965 60.0286C44.8716 60.3584 44.6972 60.5316 44.3816 60.5398C44.066 60.5398 43.8501 60.3832 43.8418 60.0699C43.8335 59.7566 44.0245 59.5834 44.3484 59.5752C44.6723 59.5752 44.855 59.7236 44.8882 60.0286H44.8965Z" fill="#B6D561"/>
<path d="M36.7743 495.373C36.8823 494.73 36.9819 494.087 37.1065 493.444C37.4138 491.877 37.9951 490.393 38.809 488.983C39.1163 488.456 39.5481 488.283 40.0049 488.489C40.4783 488.703 40.5946 489.157 40.2873 489.684C39.0083 491.894 38.4104 494.268 38.4353 496.758C38.4602 498.976 38.9751 501.095 40.0464 503.09C40.0963 503.181 40.1461 503.271 40.1876 503.362C40.3786 503.791 40.2291 504.211 39.8139 504.392C39.3987 504.574 38.9004 504.442 38.701 504.022C38.2858 503.148 37.829 502.282 37.5467 501.367C37.2228 500.32 37.0816 499.231 36.8573 498.16C36.8407 498.061 36.8075 497.97 36.7743 497.871C36.7743 497.038 36.7743 496.206 36.7743 495.373Z" fill="#B6D561"/>
<path d="M46.4247 496.428C46.4662 500.897 49.5723 504.887 54.1898 506.346C54.2895 506.379 54.3974 506.412 54.4971 506.445C54.9705 506.618 55.1781 507.006 55.0286 507.418C54.8791 507.83 54.414 508.045 53.924 507.871C53.1102 507.575 52.2714 507.303 51.5156 506.899C47.7286 504.887 45.453 501.886 44.9132 497.912C44.3983 494.136 45.6689 490.83 48.5424 488.068C48.7584 487.862 48.8165 487.697 48.7168 487.417C47.8531 484.902 47.0226 482.379 46.1589 479.857C46.0344 479.477 45.9845 479.139 46.3333 478.851C46.6987 478.546 47.0891 478.653 47.4794 478.826C48.4926 479.271 49.5141 479.708 50.5356 480.145C52.4956 480.978 54.5054 480.376 55.5518 478.653C56.075 477.787 56.5899 476.913 57.1048 476.031C57.2875 475.726 57.5118 475.495 57.927 475.495C58.3423 475.495 58.5665 475.726 58.7492 476.031C59.2641 476.905 59.779 477.779 60.3022 478.653C61.3321 480.359 63.3502 480.97 65.2852 480.162C66.3233 479.725 67.3531 479.279 68.3829 478.826C68.7816 478.653 69.1636 478.554 69.529 478.859C69.8778 479.147 69.828 479.494 69.7034 479.865C68.848 482.388 68.0092 484.91 67.1455 487.425C67.0542 487.681 67.0791 487.845 67.295 488.052C70.0938 490.739 71.4309 493.93 70.9658 497.623C70.3263 502.743 67.1953 506.124 61.93 507.88C61.7556 507.937 61.5563 507.987 61.3736 507.987C60.9999 507.987 60.6677 507.707 60.5929 507.368C60.5182 507.055 60.7092 506.701 61.058 506.56C61.3487 506.445 61.6559 506.371 61.9466 506.264C66.0409 504.73 68.5823 502.001 69.2467 497.986C70.1685 492.438 66.232 487.326 60.2524 486.164C54.0154 484.952 47.8365 488.752 46.6738 494.523C46.5493 495.15 46.4994 495.793 46.4164 496.428H46.4247ZM67.6272 480.838C67.0209 481.101 66.4977 481.324 65.9745 481.547C63.2339 482.684 60.2773 481.786 58.8406 479.362C58.5499 478.884 58.2675 478.397 57.9436 477.853C57.6031 478.422 57.3042 478.941 56.9886 479.452C55.5601 481.786 52.5703 482.676 49.9128 481.547C49.3812 481.324 48.8497 481.093 48.2435 480.838C48.9162 482.824 49.564 484.745 50.2034 486.666C55.3857 483.657 60.5182 483.657 65.6672 486.666C66.315 484.745 66.9628 482.824 67.6272 480.846V480.838Z" fill="#B6D561"/>
<path d="M53.1516 500.121C53.1516 499.552 53.1599 498.992 53.1516 498.423C53.1516 498.274 53.0769 498.101 52.9772 497.986C52.2879 497.153 51.5737 496.337 50.8761 495.512C50.3113 494.853 50.5024 494.317 51.3827 494.078C52.4872 493.781 53.5918 493.484 54.6964 493.163C54.8708 493.113 55.0618 492.981 55.1697 492.841C55.8424 491.967 56.4985 491.077 57.1629 490.203C57.628 489.585 58.2592 489.585 58.7243 490.203C59.3803 491.069 60.0198 491.951 60.6925 492.817C60.8171 492.973 61.0247 493.113 61.224 493.171C62.2954 493.484 63.3833 493.765 64.4547 494.061C65.4097 494.325 65.5841 494.836 64.9779 495.545C64.2886 496.345 63.5993 497.145 62.9266 497.961C62.802 498.109 62.7272 498.324 62.7272 498.505C62.7355 499.585 62.7854 500.674 62.8103 501.754C62.8269 502.52 62.3286 502.85 61.523 502.578C60.4351 502.215 59.3637 501.844 58.2675 501.498C58.0682 501.432 57.8024 501.44 57.6031 501.498C56.4985 501.844 55.4106 502.223 54.3143 502.586C53.5669 502.834 53.052 502.504 53.052 501.787C53.052 501.506 53.052 501.234 53.0686 500.954C53.0769 500.674 53.0935 500.401 53.1101 500.121C53.1267 500.121 53.1433 500.121 53.1516 500.121ZM61.0413 500.781C61.0413 499.964 61.0829 499.206 61.0247 498.456C60.9915 497.945 61.1078 497.532 61.4732 497.137C62.0213 496.551 62.5196 495.925 63.076 495.273C62.2539 495.051 61.5064 494.803 60.734 494.639C60.0863 494.498 59.6378 494.202 59.2973 493.682C58.8904 493.064 58.4087 492.487 57.9353 491.86C57.6363 492.264 57.3207 492.586 57.1131 492.965C56.5151 494.053 55.5933 494.705 54.2645 494.878C53.9821 494.919 53.7081 495.018 53.434 495.1C53.2347 495.158 53.0271 495.216 52.7862 495.29C53.3427 495.941 53.8326 496.568 54.3808 497.145C54.7462 497.541 54.8708 497.953 54.8458 498.456C54.8043 499.223 54.8375 499.989 54.8375 500.781C55.6431 500.517 56.4736 500.261 57.2875 499.965C57.7443 499.791 58.1512 499.8 58.5997 499.965C59.397 500.253 60.2191 500.509 61.0413 500.781Z" fill="#B6D561"/>
<path d="M79.1377 496.279C79.0796 498.975 78.4318 501.523 77.0449 503.889C76.912 504.111 76.6629 504.318 76.4054 504.417C76.0981 504.54 75.7742 504.417 75.5666 504.161C75.3341 503.881 75.3424 503.584 75.5251 503.279C76.1812 502.166 76.6712 500.995 76.9785 499.767C77.8422 496.312 77.4768 492.973 75.8075 489.766C75.7659 489.684 75.7244 489.609 75.6829 489.527C75.4753 489.082 75.6331 488.661 76.0732 488.472C76.4968 488.29 76.9452 488.439 77.1778 488.859C78.0747 490.459 78.6561 492.157 78.9135 493.946C79.0215 494.721 79.063 495.496 79.1377 496.271V496.279Z" fill="#B6D561"/>
<path d="M40.4866 496.766C40.4866 494.82 40.8603 493.139 41.6493 491.531C41.8403 491.143 42.1642 490.978 42.5628 491.044C42.9698 491.11 43.2023 491.341 43.2438 491.704C43.2604 491.869 43.2023 492.05 43.1359 492.207C41.8569 494.994 41.8071 497.797 42.9698 500.616C43.194 501.161 43.0279 501.564 42.513 501.738C42.0479 501.894 41.6244 501.672 41.4084 501.152C40.7856 499.685 40.47 498.159 40.4866 496.774V496.766Z" fill="#B6D561"/>
<path d="M75.3757 496.065C75.3757 498.036 75.002 499.726 74.2213 501.334C74.0386 501.713 73.6732 501.911 73.316 501.845C72.9257 501.771 72.66 501.556 72.6184 501.194C72.6018 501.029 72.6517 500.847 72.7264 500.691C74.0054 497.896 74.0635 495.076 72.8925 492.24C72.6766 491.721 72.8593 491.308 73.341 491.143C73.8143 490.979 74.2379 491.193 74.4538 491.712C75.0767 493.18 75.4006 494.705 75.3757 496.065Z" fill="#B6D561"/>
<path d="M58.7575 507.715C58.7409 508.135 58.3838 508.448 57.927 508.44C57.4619 508.44 57.0965 508.077 57.1131 507.657C57.1297 507.245 57.4951 506.931 57.9519 506.94C58.4336 506.94 58.7741 507.278 58.7575 507.723V507.715Z" fill="#B6D561"/>
<path d="M54.4887 358.348C54.3558 358.348 54.2313 358.348 54.115 358.348C51.4159 358.348 48.7251 358.348 46.026 358.348C45.1872 358.348 44.3982 357.779 44.1823 357.004C44.1242 356.806 44.1075 356.584 44.1075 356.378C44.1075 349.939 44.1242 343.5 44.1158 337.061C44.1158 335.89 45.0543 335.222 45.9928 335.156C46.0924 335.156 46.2004 335.156 46.3 335.156C54.115 335.156 61.9299 335.156 69.7449 335.156C70.5422 335.156 71.19 335.453 71.6135 336.146C71.8377 336.517 71.8294 336.929 71.8294 337.325C71.8294 339.913 71.8211 342.51 71.8128 345.099C71.8128 348.249 71.8128 351.39 71.8128 354.539C71.8128 355.166 71.8294 355.792 71.8294 356.419C71.8294 357.342 71.2813 358.035 70.3844 358.274C70.21 358.323 70.019 358.34 69.8362 358.34C67.1371 358.34 64.4463 358.34 61.7472 358.34H61.4233C61.1991 359.832 62.1625 361.143 63.5411 361.44C63.7072 361.473 63.8733 361.489 64.0394 361.498C64.3882 361.522 64.5958 361.695 64.5875 361.959C64.5792 362.231 64.3716 362.38 64.0145 362.38C60.6344 362.38 57.246 362.38 53.8658 362.38C53.1931 362.38 52.5288 362.38 51.8561 362.38C51.4989 362.38 51.2913 362.215 51.2913 361.943C51.2913 361.687 51.4906 361.514 51.8311 361.506C53.4921 361.423 54.688 360.014 54.4721 358.34L54.4887 358.348ZM50.4691 354.3C50.4442 354.176 50.4276 354.086 50.4027 354.003C50.1785 353.187 49.7383 352.486 49.2483 351.81C48.941 351.381 48.9327 351.332 49.2234 350.912C49.6968 350.236 50.1618 349.559 50.6352 348.892C51.175 348.117 51.7066 347.342 52.2547 346.575C52.5121 346.212 52.9108 346.245 53.1184 346.633C53.1765 346.74 53.2347 346.839 53.3094 346.938C54.223 348.273 55.1448 349.601 56.0584 350.936C56.3241 351.324 56.3075 351.381 56.0584 351.777C55.7012 352.346 55.369 352.931 55.0535 353.525C54.9289 353.756 54.8791 354.036 54.796 354.292H61.0745V336.038H60.7091C55.9421 336.038 51.175 336.038 46.408 336.038C46.3 336.038 46.1838 336.038 46.0758 336.038C45.3865 336.063 44.9962 336.459 44.9962 337.143C44.9962 342.758 44.9962 348.38 44.9962 353.995C44.9962 354.094 44.9962 354.193 44.9962 354.3H50.4691ZM61.9881 336.038V344.448H70.9159C70.9159 344.382 70.9325 344.341 70.9325 344.299C70.9325 341.958 70.9325 339.617 70.9325 337.275C70.9325 336.55 70.3844 336.047 69.6452 336.047C67.187 336.047 64.7204 336.047 62.2621 336.047C62.1791 336.047 62.096 336.047 61.9964 336.047L61.9881 336.038ZM70.9242 355.199H45.0294C45.0294 355.636 45.0377 356.056 45.0294 356.477C45.0128 356.93 45.2453 357.21 45.644 357.359C45.8516 357.433 46.0924 357.466 46.3167 357.466C54.0901 357.466 61.8718 357.466 69.6452 357.466C69.7449 357.466 69.8529 357.466 69.9525 357.466C70.4093 357.433 70.8993 357.087 70.9159 356.732C70.9491 356.229 70.9159 355.726 70.9159 355.207L70.9242 355.199ZM70.9408 354.292V345.355H61.9881V354.292H70.9408ZM61.7638 361.489C60.8254 360.624 60.46 359.568 60.543 358.356H55.4023C55.4604 359.577 55.1033 360.624 54.1648 361.489H61.7721H61.7638ZM53.1516 349.955C53.2679 349.955 53.3675 349.963 53.4672 349.98C53.7247 350.005 53.8825 350.178 53.8742 350.417C53.8575 350.664 53.7247 350.821 53.4755 350.829C52.9357 350.837 52.3959 350.846 51.8644 350.829C51.6069 350.829 51.4491 350.631 51.4657 350.392C51.4823 350.145 51.6235 350.005 51.8727 349.98C51.9972 349.963 52.1218 349.963 52.2464 349.955V348.133C51.474 349.238 50.7432 350.293 50.0124 351.332C50.6518 352.255 51.2083 353.179 51.3744 354.292H53.9323C54.0984 353.269 54.5967 352.387 55.1614 351.538C55.2694 351.381 55.2611 351.283 55.1614 351.126C54.5469 350.252 53.9489 349.362 53.3343 348.479C53.2928 348.413 53.2347 348.356 53.1599 348.265V349.947L53.1516 349.955Z" fill="#B6D561"/>
<path d="M53.1433 349.963V348.281C53.218 348.38 53.2762 348.438 53.3177 348.496C53.924 349.378 54.5302 350.26 55.1448 351.142C55.2528 351.291 55.2528 351.398 55.1448 351.554C54.5801 352.404 54.0901 353.286 53.9157 354.308H51.3577C51.1916 353.195 50.6269 352.272 49.9957 351.348C50.7266 350.301 51.4574 349.254 52.2298 348.149V349.971C52.1052 349.971 51.9806 349.98 51.856 349.996C51.6069 350.021 51.4657 350.153 51.4491 350.408C51.4325 350.647 51.5903 350.837 51.8477 350.845C52.3875 350.862 52.9274 350.862 53.4589 350.845C53.708 350.845 53.8492 350.68 53.8575 350.433C53.8741 350.194 53.708 350.021 53.4506 349.996C53.3509 349.988 53.2513 349.98 53.135 349.971L53.1433 349.963Z" fill="#B6D561"/>
<path d="M55.0368 341.612C55.0368 342.296 55.0368 342.981 55.0368 343.657C55.0368 343.937 54.9372 344.118 54.6797 344.242C53.434 344.852 52.1965 345.487 50.9425 346.089C50.8096 346.155 50.5854 346.147 50.4525 346.089C49.1985 345.487 47.961 344.86 46.7153 344.259C46.4329 344.127 46.325 343.937 46.325 343.632C46.325 342.247 46.325 340.87 46.325 339.485C46.325 339.254 46.4163 339.098 46.6239 338.999C47.878 338.389 49.1403 337.778 50.3861 337.152C50.602 337.045 50.793 337.036 51.0172 337.152C52.263 337.77 53.5087 338.389 54.7545 338.999C54.9621 339.098 55.0534 339.262 55.0451 339.485C55.0451 340.194 55.0451 340.903 55.0451 341.612H55.0368ZM50.2698 345.034C50.2698 343.921 50.2698 342.865 50.2698 341.81C50.2698 341.736 50.1784 341.637 50.1037 341.596C49.73 341.398 49.3479 341.216 48.9659 341.019C48.3929 340.73 47.8198 340.441 47.2136 340.136C47.2136 341.249 47.2136 342.329 47.2136 343.401C47.2136 343.467 47.28 343.558 47.3382 343.583C48.2932 344.061 49.2566 344.531 50.2698 345.034ZM54.1648 340.194C54.1067 340.194 54.0901 340.194 54.0735 340.194C53.1433 340.664 52.2048 341.134 51.283 341.612C51.2166 341.645 51.175 341.769 51.1667 341.851C51.1584 342.288 51.1667 342.717 51.1667 343.154C51.1667 343.764 51.1667 344.366 51.1667 344.984C51.2166 344.984 51.2498 344.984 51.2747 344.968C52.1965 344.514 53.1184 344.061 54.0319 343.591C54.0984 343.558 54.1648 343.451 54.1648 343.385C54.1731 342.321 54.1648 341.266 54.1648 340.194ZM53.625 339.427C52.9523 339.089 52.3377 338.784 51.7232 338.487C51.3827 338.323 51.0422 338.034 50.7017 338.034C50.3612 338.034 50.0207 338.323 49.6801 338.487C49.0573 338.793 48.4427 339.098 47.7783 339.419C47.8946 339.485 47.9693 339.535 48.0441 339.568C48.6254 339.864 49.2483 340.103 49.7881 340.458C50.4359 340.878 50.984 340.862 51.6235 340.458C52.2298 340.07 52.9108 339.79 53.6167 339.427H53.625Z" fill="#B6D561"/>
<path d="M58.4253 338.545V344.753C58.6578 344.522 58.8572 344.324 59.0565 344.126C59.1395 344.044 59.2226 343.945 59.3222 343.879C59.5133 343.747 59.7126 343.755 59.8787 343.92C60.0448 344.085 60.0863 344.308 59.9285 344.472C59.3804 345.05 58.8156 345.61 58.2343 346.154C58.0682 346.311 57.844 346.286 57.6779 346.121C57.138 345.594 56.5899 345.058 56.0584 344.514C55.884 344.332 55.9006 344.077 56.0667 343.92C56.2328 343.755 56.4903 343.739 56.6647 343.92C56.9387 344.184 57.1879 344.464 57.4453 344.736C57.4702 344.72 57.4868 344.703 57.5118 344.695V338.495C57.2377 338.759 56.9969 338.99 56.756 339.229C56.5069 339.468 56.266 339.493 56.075 339.303C55.8674 339.105 55.8923 338.858 56.1498 338.611C56.6397 338.132 57.1297 337.654 57.6197 337.176C57.8606 336.945 58.0848 336.945 58.3256 337.176C58.8156 337.654 59.3056 338.132 59.7956 338.611C60.0448 338.858 60.078 339.089 59.887 339.287C59.696 339.493 59.4302 339.476 59.1894 339.221C58.9568 338.982 58.7409 338.726 58.525 338.479C58.4917 338.503 58.4585 338.528 58.4253 338.553V338.545Z" fill="#B6D561"/>
<path d="M66.4313 338.478C65.5593 338.478 64.6872 338.478 63.8152 338.478C63.4581 338.478 63.2588 338.322 63.2588 338.041C63.2588 337.769 63.4581 337.604 63.8152 337.604C65.5676 337.604 67.3199 337.604 69.0722 337.604C69.4127 337.604 69.6287 337.786 69.6204 338.058C69.6121 338.314 69.4044 338.478 69.0722 338.478C68.1919 338.478 67.3116 338.478 66.4313 338.478Z" fill="#B6D561"/>
<path d="M66.4313 340.696C65.551 340.696 64.6623 340.696 63.782 340.696C63.4415 340.696 63.2505 340.54 63.2505 340.268C63.2505 339.996 63.4415 339.839 63.782 339.839C65.551 339.839 67.3116 339.839 69.0806 339.839C69.4128 339.839 69.6204 340.012 69.6121 340.276C69.6121 340.54 69.4127 340.696 69.0722 340.696C68.1919 340.696 67.3033 340.696 66.423 340.696H66.4313Z" fill="#B6D561"/>
<path d="M65.0942 342.898C64.654 342.898 64.2222 342.898 63.782 342.898C63.4498 342.898 63.2505 342.725 63.2505 342.461C63.2505 342.189 63.4498 342.024 63.782 342.024C64.654 342.024 65.526 342.024 66.3981 342.024C66.7219 342.024 66.9379 342.206 66.9379 342.461C66.9379 342.717 66.7219 342.898 66.3981 342.898C65.9579 342.898 65.526 342.898 65.0859 342.898H65.0942Z" fill="#B6D561"/>
<path d="M57.9602 356.757C57.8522 356.757 57.736 356.765 57.628 356.757C57.3872 356.732 57.246 356.567 57.2377 356.336C57.2377 356.105 57.3872 355.932 57.6197 355.916C57.8522 355.899 58.0848 355.899 58.309 355.916C58.5415 355.932 58.6993 356.105 58.6993 356.336C58.6993 356.567 58.5499 356.732 58.3173 356.757C58.201 356.765 58.0765 356.757 57.9602 356.757Z" fill="#B6D561"/>
<path d="M66.4894 353.112C65.4097 353.137 64.4214 352.412 64.1058 351.373C64.0643 351.241 63.973 351.093 63.8567 351.01C62.802 350.293 62.4615 348.982 63.0677 347.894C63.674 346.797 65.0028 346.327 66.1489 346.822C66.3482 346.904 66.4894 346.896 66.6804 346.805C67.8348 346.261 69.2217 346.715 69.8279 347.819C70.4425 348.924 70.0937 350.285 69.0307 350.985C68.9227 351.06 68.8313 351.2 68.7981 351.323C68.4825 352.387 67.5939 353.079 66.4811 353.104L66.4894 353.112ZM66.4561 352.206C67.2949 352.206 68.0009 351.521 68.0092 350.713C68.0092 349.881 67.2949 349.13 66.4561 349.163C65.6173 349.196 64.9446 349.716 64.9114 350.672C64.8782 351.48 65.6256 352.197 66.4561 352.197V352.206ZM68.8064 350.029C69.2383 349.625 69.3712 348.99 69.1469 348.421C68.9227 347.844 68.3497 347.448 67.7268 347.44C67.1454 347.432 66.5973 347.77 66.3814 348.265C67.5856 348.322 68.3995 348.899 68.8064 350.029ZM65.6838 347.58C64.9612 347.35 64.2304 347.622 63.8484 348.273C63.4996 348.867 63.5909 349.609 64.0809 350.045C64.2885 349.419 64.6457 348.916 65.2353 348.594C65.2768 348.57 65.3101 348.512 65.3267 348.471C65.4429 348.182 65.5592 347.894 65.6755 347.589L65.6838 347.58Z" fill="#B6D561"/>
<path d="M46.8897 141.237C46.6156 141.055 46.5741 140.816 46.6488 140.503C47.0641 138.747 47.4544 136.991 47.878 135.243C47.9278 135.037 48.0524 134.823 48.2019 134.674C48.9991 133.858 49.8213 133.066 50.6103 132.193C50.3362 132.209 50.0622 132.226 49.7881 132.259C48.642 132.366 47.5209 132.555 46.4744 133.058C45.4529 133.553 44.7221 134.303 44.4812 135.441C44.2736 136.438 44.5809 137.321 45.1539 138.12C45.3948 138.467 45.7021 138.763 45.9927 139.077C46.1921 139.291 46.217 139.538 46.0426 139.728C45.8682 139.926 45.5941 139.951 45.3865 139.761C44.4314 138.887 43.7089 137.865 43.5428 136.554C43.3352 134.971 43.958 133.726 45.2038 132.77C46.1256 132.061 47.2053 131.706 48.3347 131.549C49.3646 131.401 50.4027 131.352 51.4408 131.253C51.5487 131.244 51.6899 131.203 51.7647 131.129C53.6831 129.233 55.6016 127.328 57.5117 125.424C57.5449 125.391 57.5698 125.358 57.5947 125.317C56.8141 125.094 56.0334 124.904 55.286 124.632C54.6963 124.418 54.1067 124.154 53.5918 123.8C52.5952 123.107 52.454 122.126 53.1433 121.12C53.7496 120.23 54.6216 119.628 55.477 119.001C56.158 118.515 56.8224 118.004 57.4702 117.468C57.6861 117.295 57.8522 117.047 57.9934 116.808C58.2758 116.338 58.2259 115.901 57.7941 115.58C57.3539 115.258 56.8556 114.97 56.349 114.772C54.9953 114.236 53.5668 114.005 52.1384 113.799C49.4227 113.42 46.6904 113.288 43.958 113.238C43.7089 113.238 43.5511 113.139 43.4182 112.95V112.612C43.5677 112.381 43.7753 112.323 44.0494 112.323C46.7153 112.348 49.3645 112.496 52.0055 112.851C53.708 113.073 55.4189 113.354 57.0051 114.038C57.5117 114.252 58.0017 114.549 58.4252 114.904C59.1976 115.555 59.2973 116.421 58.7907 117.286C58.3754 117.995 57.7691 118.515 57.1131 118.985C56.349 119.545 55.56 120.065 54.8292 120.65C54.4555 120.955 54.1233 121.335 53.8492 121.73C53.5004 122.233 53.5918 122.621 54.0818 123C54.6963 123.478 55.4189 123.734 56.158 123.94C56.8224 124.129 57.4951 124.27 58.1595 124.451C58.3505 124.5 58.4668 124.451 58.5996 124.311C61.3071 121.615 64.0228 118.919 66.7385 116.231C67.4776 115.497 68.3496 115.258 69.3296 115.654C69.6286 115.769 69.9027 115.984 70.1435 116.206C70.7082 116.734 71.2481 117.286 71.7962 117.839C72.7762 118.82 72.7845 120.197 71.7962 121.186C70.2266 122.753 68.6486 124.311 67.0707 125.877C66.9295 126.017 66.7717 126.158 66.6056 126.306C67.079 126.52 67.5025 126.669 67.8929 126.891C68.2832 127.114 68.6652 127.378 68.9808 127.691C69.5954 128.301 69.7283 129.043 69.4127 129.843C69.0057 130.89 68.1918 131.508 67.1786 131.912C66.1488 132.316 65.0609 132.481 63.9646 132.514C62.8518 132.555 61.7306 132.514 60.6177 132.539C60.4766 132.539 60.3105 132.613 60.2108 132.712C57.8854 135.004 55.5683 137.304 53.2513 139.613C53.0519 139.81 52.836 139.918 52.5703 139.975C50.8511 140.363 49.1237 140.759 47.4046 141.154C47.3631 141.163 47.3298 141.196 47.2883 141.212H46.8897V141.237ZM63.7321 120.724C59.1062 125.317 54.4804 129.901 49.8795 134.46C49.9874 134.485 50.1701 134.518 50.3445 134.55C50.5272 134.583 50.7183 134.616 50.901 134.658C51.366 134.757 51.4408 134.856 51.4491 135.325C51.4491 135.688 51.4491 136.051 51.4491 136.43C51.8893 136.43 52.2713 136.43 52.6616 136.43C53.0104 136.43 53.135 136.537 53.2097 136.875C53.2928 137.271 53.3758 137.675 53.4506 138.038C58.0847 133.446 62.7023 128.854 67.3115 124.278C66.1156 123.082 64.8865 121.87 63.7321 120.716V120.724ZM61.3071 131.566C61.3071 131.566 61.3403 131.624 61.3569 131.648C61.4482 131.648 61.5396 131.665 61.6309 131.665C62.5943 131.64 63.566 131.648 64.5211 131.582C65.4429 131.517 66.3565 131.343 67.2036 130.931C67.7932 130.643 68.2583 130.239 68.524 129.628C68.7566 129.093 68.6818 128.672 68.2583 128.268C68.1005 128.12 67.9344 127.971 67.7434 127.881C67.2119 127.625 66.6554 127.402 66.1156 127.155C65.9495 127.081 65.8332 127.114 65.7004 127.246C64.3217 128.631 62.9348 130 61.5479 131.376C61.4732 131.451 61.3818 131.5 61.2987 131.566H61.3071ZM70.2016 121.433C70.5588 121.095 70.9574 120.774 71.2896 120.395C71.7547 119.867 71.7214 119.108 71.2315 118.597C70.6335 117.979 70.0272 117.377 69.4044 116.784C68.8895 116.297 68.1005 116.272 67.569 116.742C67.1953 117.072 66.8714 117.451 66.5309 117.789C67.76 119.01 68.9891 120.23 70.2016 121.433ZM69.5206 122.142C68.2832 120.914 67.0541 119.694 65.8748 118.523C65.3765 119.01 64.8782 119.512 64.4214 119.958C65.6256 121.153 66.8548 122.373 68.0756 123.585C68.5407 123.124 69.0306 122.629 69.5289 122.142H69.5206ZM50.5272 136.298C50.5272 136.1 50.5439 135.903 50.5189 135.705C50.5106 135.622 50.4193 135.507 50.3445 135.49C49.9542 135.4 49.5473 135.342 49.1569 135.251C48.9078 135.194 48.8081 135.309 48.7583 135.523C48.6503 135.985 48.5258 136.455 48.4344 136.917C48.4178 137.024 48.4593 137.18 48.5341 137.255C49.2234 137.955 49.9127 138.648 50.6186 139.324C50.6933 139.39 50.8345 139.439 50.9342 139.423C51.4242 139.324 51.9059 139.209 52.3959 139.093C52.6035 139.044 52.6865 138.928 52.6367 138.706C52.5453 138.31 52.4872 137.914 52.3875 137.527C52.3709 137.453 52.2464 137.354 52.1716 137.354C51.7979 137.337 51.4159 137.354 51.0338 137.345C50.7016 137.345 50.5355 137.164 50.5272 136.834C50.5272 136.653 50.5272 136.48 50.5272 136.298ZM49.622 139.728C49.1071 139.225 48.6171 138.73 48.1188 138.244C47.9776 138.862 47.8281 139.505 47.6703 140.181C48.3597 140.025 48.9991 139.876 49.622 139.728Z" fill="#B6D561"/>
<path d="M68.9725 201.719C68.9725 202.544 68.9725 203.327 68.9725 204.102C68.9725 204.53 68.8064 204.704 68.3662 204.704C60.5596 204.704 52.7447 204.704 44.938 204.704C43.8251 204.704 42.9448 203.83 42.9448 202.741C42.9448 194.109 42.9448 185.469 42.9448 176.837C42.9448 176.004 43.4846 175.279 44.2819 174.999C45.0792 174.718 46.001 174.966 46.4993 175.633C46.6488 175.839 46.8066 175.889 47.0392 175.889C55.4438 175.889 63.8484 175.889 72.253 175.889C72.8426 175.889 72.9755 176.021 72.9755 176.59C72.9755 184.735 72.9755 192.889 72.9755 201.035C72.9755 201.595 72.8343 201.727 72.2779 201.727C71.2896 201.727 70.293 201.727 69.3047 201.727C69.205 201.727 69.0971 201.727 68.9725 201.727V201.719ZM46.9644 200.705H71.954V176.887H46.9644V200.705ZM45.9512 200.705V200.4C45.9512 192.617 45.9512 184.834 45.9512 177.043C45.9512 176.961 45.9512 176.878 45.9512 176.796C45.9014 176.408 45.7104 176.112 45.345 175.955C44.9878 175.798 44.6473 175.856 44.3484 176.087C44.0411 176.318 43.9497 176.647 43.9497 177.018C43.9497 184.908 43.9497 192.79 43.9497 200.68C43.9497 200.771 43.9497 200.853 43.9663 200.977C44.6058 200.598 45.2785 200.763 45.9595 200.705H45.9512ZM67.9676 201.711C67.8596 201.711 67.7849 201.711 67.7102 201.711C60.1693 201.711 52.6367 201.711 45.0958 201.711C45.0294 201.711 44.9712 201.711 44.9048 201.711C44.3567 201.752 43.9414 202.189 43.9414 202.708C43.9414 203.22 44.3567 203.64 44.8882 203.69C44.9712 203.69 45.0543 203.69 45.1373 203.69C52.6367 203.69 60.1277 203.69 67.6271 203.69H67.9759C67.9759 203.055 67.9759 202.469 67.9759 201.876C67.9759 201.826 67.9759 201.777 67.9593 201.694L67.9676 201.711Z" fill="#B6D561"/>
<path d="M56.5151 189.93C56.4155 190.309 56.2909 190.861 56.1248 191.397C56.0667 191.595 56.1082 191.719 56.2494 191.859C57.0716 192.667 57.8855 193.483 58.7076 194.291C59.0565 194.646 59.0648 194.868 58.7076 195.214C57.6114 196.303 56.5151 197.399 55.4106 198.487C55.0618 198.834 54.8292 198.834 54.4804 198.487C53.052 197.069 51.6235 195.651 50.1951 194.233C49.838 193.879 49.838 193.656 50.1951 193.31C50.7266 192.782 51.2581 192.263 51.7813 191.727C51.9142 191.595 52.0139 191.414 52.072 191.241C52.2962 190.532 52.4706 189.806 52.7032 189.105C53.0022 188.215 53.9323 187.679 54.8458 187.827C55.8009 187.984 56.5068 188.808 56.5068 189.938L56.5151 189.93ZM51.2498 193.763C52.4789 194.984 53.733 196.228 54.9538 197.44C55.8507 196.55 56.7726 195.643 57.6446 194.777C57.0217 194.159 56.374 193.516 55.7345 192.881C55.6431 193.186 55.5435 193.541 55.4355 193.895C55.0867 193.796 54.7877 193.706 54.4721 193.623C54.6133 193.12 54.7379 192.65 54.8625 192.18C54.8874 192.09 54.904 191.95 54.8542 191.892C54.5718 191.579 54.2645 191.29 53.9987 191.026C53.0603 191.966 52.1467 192.865 51.2498 193.755V193.763ZM53.5171 189.971C53.9406 189.707 54.1067 189.724 54.4223 190.037C54.6797 190.292 54.9455 190.548 55.2362 190.845C55.3358 190.466 55.4355 190.169 55.4853 189.855C55.5933 189.212 54.9538 188.668 54.3226 188.833C53.7496 188.982 53.625 189.443 53.5171 189.971Z" fill="#B6D561"/>
<path d="M59.4301 186.146C59.1145 186.261 58.8155 186.36 58.4999 186.475C58.2591 185.816 58.0183 185.189 57.8106 184.554C57.7442 184.357 57.6528 184.307 57.4535 184.307C56.7144 184.315 55.9752 184.307 55.2195 184.307C54.962 185.024 54.7046 185.733 54.4388 186.467C54.1232 186.352 53.8243 186.253 53.4921 186.137C53.6332 185.742 53.7661 185.362 53.899 184.983C54.5717 183.112 55.2444 181.232 55.9171 179.36C55.9254 179.327 55.942 179.303 55.9503 179.278C56.0251 179.031 56.1746 178.857 56.4569 178.857C56.7393 178.857 56.8805 179.031 56.9718 179.278C57.304 180.21 57.6445 181.141 57.9767 182.081C58.4252 183.326 58.8737 184.571 59.3221 185.808C59.3637 185.915 59.3886 186.022 59.4218 186.154L59.4301 186.146ZM56.5068 180.96C56.5068 180.96 56.4569 180.96 56.432 180.952C56.1496 181.735 55.8673 182.518 55.5849 183.309H57.3539C57.0632 182.51 56.7891 181.735 56.5068 180.96Z" fill="#B6D561"/>
<path d="M62.4448 192.766C61.8054 192.766 61.1742 192.766 60.5347 192.766C60.1444 192.766 59.97 192.584 59.97 192.197C59.97 190.927 59.97 189.649 59.97 188.379C59.97 187.984 60.1444 187.811 60.543 187.811C61.8386 187.811 63.1258 187.811 64.4214 187.811C64.7951 187.811 64.9695 187.992 64.9778 188.371C64.9778 189.657 64.9778 190.935 64.9778 192.221C64.9778 192.609 64.7951 192.774 64.3965 192.782C63.7487 192.782 63.1009 192.782 62.4531 192.782L62.4448 192.766ZM60.9832 188.808V191.751H63.948V188.808H60.9832Z" fill="#B6D561"/>
<path d="M68.4991 187.803C69.1385 187.803 69.7697 187.803 70.4092 187.803C70.7995 187.803 70.9739 187.984 70.9822 188.371C70.9822 189.641 70.9822 190.919 70.9822 192.189C70.9822 192.584 70.8078 192.758 70.4175 192.758C69.1219 192.758 67.8347 192.758 66.5391 192.758C66.1654 192.758 65.9827 192.576 65.9827 192.197C65.9827 190.911 65.9827 189.633 65.9827 188.347C65.9827 187.959 66.1654 187.794 66.564 187.786C67.2118 187.786 67.8596 187.786 68.5074 187.786L68.4991 187.803ZM66.9959 188.808V191.752H69.9607V188.808H66.9959Z" fill="#B6D561"/>
<path d="M52.4457 185.346V186.269C52.0886 186.318 51.8727 186.236 51.3744 185.881C50.7349 186.409 49.9791 186.401 49.2234 186.236C48.368 186.038 47.8365 185.189 47.961 184.315C48.0773 183.491 48.8164 182.839 49.6718 182.831C50.0871 182.831 50.5023 182.831 50.9093 182.831C51.0671 182.056 50.7681 181.495 50.1286 181.363C49.5722 181.24 49.1154 181.603 48.9244 182.32H47.9776C47.8697 181.38 48.7832 180.399 49.7881 180.349C51.0256 180.292 51.9474 181.157 51.9557 182.394C51.9557 183.12 51.9557 183.845 51.9557 184.571C51.9557 185.074 51.9972 185.148 52.4457 185.354V185.346ZM50.9591 183.82C50.5023 183.82 50.0788 183.804 49.6552 183.82C49.2483 183.845 48.9576 184.191 48.9576 184.562C48.9576 184.933 49.2483 185.247 49.6386 185.288C49.8213 185.313 50.0123 185.304 50.2034 185.288C50.6435 185.263 50.9342 184.966 50.9591 184.529C50.9674 184.307 50.9591 184.076 50.9591 183.804V183.82Z" fill="#B6D561"/>
<path d="M60.4849 180.819V179.871H70.9657V180.819H60.4849Z" fill="#B6D561"/>
<path d="M51.0255 197.119C50.9591 197.976 50.4359 198.619 49.6718 198.726C48.8912 198.833 48.1603 198.347 47.9942 197.572C47.8946 197.11 47.9195 196.649 48.1935 196.228C48.4593 195.824 48.7251 195.412 49.0074 195.016C49.2649 194.653 49.6469 194.653 49.9044 195.016C50.1867 195.412 50.4691 195.808 50.7099 196.228C50.8594 196.5 50.9259 196.814 51.0255 197.11V197.119ZM49.4476 196.154C49.2815 196.426 49.1071 196.632 48.9991 196.879C48.8829 197.135 48.9078 197.415 49.1403 197.613C49.3313 197.778 49.5473 197.778 49.7383 197.63C49.9874 197.432 49.9874 197.168 49.9127 196.896C49.8961 196.847 49.8711 196.797 49.8462 196.756C49.73 196.574 49.6054 196.393 49.4476 196.154Z" fill="#B6D561"/>
<path d="M63.9895 182.806V181.85H70.9573V182.806H63.9895Z" fill="#B6D561"/>
<path d="M60.4932 183.837H65.9495V184.802H60.4932V183.837Z" fill="#B6D561"/>
<path d="M61.988 194.736V193.779H64.9529V194.736H61.988Z" fill="#B6D561"/>
<path d="M67.9926 194.736V193.779H70.9574V194.736H67.9926Z" fill="#B6D561"/>
<path d="M61.988 195.767H64.9446V196.723H61.988V195.767Z" fill="#B6D561"/>
<path d="M70.9574 196.739H68.0009V195.774H70.9574V196.739Z" fill="#B6D561"/>
<path d="M64.9529 197.762V198.718H61.988V197.762H64.9529Z" fill="#B6D561"/>
<path d="M70.974 197.762V198.71H68.0009V197.762H70.974Z" fill="#B6D561"/>
<path d="M60.4849 182.806V181.85H62.9431V182.806H60.4849Z" fill="#B6D561"/>
<path d="M59.9783 194.744V193.788H60.9416V194.744H59.9783Z" fill="#B6D561"/>
<path d="M65.9911 193.779H66.9545V194.744H65.9911V193.779Z" fill="#B6D561"/>
<path d="M60.9499 195.774V196.723H59.9866V195.774H60.9499Z" fill="#B6D561"/>
<path d="M65.9911 195.767H66.9462V196.723H65.9911V195.767Z" fill="#B6D561"/>
<path d="M59.9866 197.754H60.9416V198.71H59.9866V197.754Z" fill="#B6D561"/>
<path d="M65.9911 198.718V197.762H66.9628V198.718H65.9911Z" fill="#B6D561"/>
</g>
<defs>
<clipPath id="clip0_314_2057">
<rect width="117" height="540" fill="white"/>
</clipPath>
</defs>
</svg>
