<svg width="56" height="54" viewBox="0 0 56 54" fill="none" xmlns="http://www.w3.org/2000/svg">
<path d="M28.18 53.85C25.06 53.82 22.18 53.56 19.35 52.84C15.87 51.95 12.68 50.46 9.83997 48.25C6.55997 45.69 4.19997 42.44 2.66997 38.58C1.86997 36.56 1.34997 34.47 1.03997 32.32C0.729975 30.13 0.609974 27.93 0.689974 25.72C0.819974 22.24 1.38997 18.84 2.68997 15.6C5.41997 8.77997 10.3 4.18997 17.19 1.70997C19.1 1.01997 21.08 0.59997 23.1 0.32997C24.59 0.12997 26.08 0.0499696 27.57 0.0199696C28.97 -0.0100304 30.38 0.0699696 31.78 0.19997C33.47 0.34997 35.14 0.61997 36.79 1.03997C41.5 2.23997 45.62 4.48997 49 8.00997C51.66 10.78 53.48 14.05 54.62 17.7C55.34 20.01 55.74 22.38 55.88 24.79C55.94 25.82 55.98 26.84 55.95 27.87C55.85 31.33 55.32 34.71 54.03 37.93C51.94 43.17 48.44 47.21 43.57 50.06C41.05 51.54 38.33 52.52 35.47 53.11C33.46 53.53 31.42 53.77 29.36 53.8C28.89 53.8 28.42 53.84 28.17 53.85H28.18Z" fill="#B6D561"/>
</svg>
